<mxfile host="app.diagrams.net" modified="2023-11-30T14:10:22.898Z" agent="Mozilla/5.0 (Windows NT 10.0; Win64; x64) AppleWebKit/537.36 (KHTML, like Gecko) Chrome/119.0.0.0 Safari/537.36" etag="0DaOIhauXQ7f0QC4SfT_" version="22.1.5" type="device">
  <diagram name="Page-1" id="042Nsv08loD9nhvr2vNF">
    <mxGraphModel dx="1235" dy="779" grid="1" gridSize="10" guides="1" tooltips="1" connect="1" arrows="1" fold="1" page="1" pageScale="1" pageWidth="1169" pageHeight="1654" math="0" shadow="0">
      <root>
        <mxCell id="0" />
        <mxCell id="1" parent="0" />
        <mxCell id="JB8RkT-HLmfvHmpbfR2l-70" value="" style="swimlane;startSize=0;" vertex="1" parent="1">
          <mxGeometry x="60" y="40" width="650" height="552" as="geometry" />
        </mxCell>
        <mxCell id="JB8RkT-HLmfvHmpbfR2l-13" value="Car" style="swimlane;fontStyle=0;childLayout=stackLayout;horizontal=1;startSize=26;fillColor=none;horizontalStack=0;resizeParent=1;resizeParentMax=0;resizeLast=0;collapsible=1;marginBottom=0;whiteSpace=wrap;html=1;" vertex="1" parent="JB8RkT-HLmfvHmpbfR2l-70">
          <mxGeometry x="375" y="50" width="140" height="52" as="geometry" />
        </mxCell>
        <mxCell id="JB8RkT-HLmfvHmpbfR2l-14" value="+Display()&lt;span style=&quot;background-color: initial;&quot;&gt;: void&lt;/span&gt;" style="text;strokeColor=none;fillColor=none;align=left;verticalAlign=top;spacingLeft=4;spacingRight=4;overflow=hidden;rotatable=0;points=[[0,0.5],[1,0.5]];portConstraint=eastwest;whiteSpace=wrap;html=1;" vertex="1" parent="JB8RkT-HLmfvHmpbfR2l-13">
          <mxGeometry y="26" width="140" height="26" as="geometry" />
        </mxCell>
        <mxCell id="JB8RkT-HLmfvHmpbfR2l-17" value="CarBuilder" style="swimlane;fontStyle=0;childLayout=stackLayout;horizontal=1;startSize=26;fillColor=none;horizontalStack=0;resizeParent=1;resizeParentMax=0;resizeLast=0;collapsible=1;marginBottom=0;whiteSpace=wrap;html=1;" vertex="1" parent="JB8RkT-HLmfvHmpbfR2l-70">
          <mxGeometry x="70" y="200" width="140" height="78" as="geometry" />
        </mxCell>
        <mxCell id="JB8RkT-HLmfvHmpbfR2l-18" value="+&amp;nbsp;CreateCar()&amp;nbsp;&lt;span style=&quot;background-color: initial;&quot;&gt;: void&lt;/span&gt;" style="text;strokeColor=none;fillColor=none;align=left;verticalAlign=top;spacingLeft=4;spacingRight=4;overflow=hidden;rotatable=0;points=[[0,0.5],[1,0.5]];portConstraint=eastwest;whiteSpace=wrap;html=1;" vertex="1" parent="JB8RkT-HLmfvHmpbfR2l-17">
          <mxGeometry y="26" width="140" height="26" as="geometry" />
        </mxCell>
        <mxCell id="JB8RkT-HLmfvHmpbfR2l-30" value="+ GetCar: Car" style="text;strokeColor=none;fillColor=none;align=left;verticalAlign=top;spacingLeft=4;spacingRight=4;overflow=hidden;rotatable=0;points=[[0,0.5],[1,0.5]];portConstraint=eastwest;whiteSpace=wrap;html=1;" vertex="1" parent="JB8RkT-HLmfvHmpbfR2l-17">
          <mxGeometry y="52" width="140" height="26" as="geometry" />
        </mxCell>
        <mxCell id="JB8RkT-HLmfvHmpbfR2l-34" style="edgeStyle=orthogonalEdgeStyle;rounded=0;orthogonalLoop=1;jettySize=auto;html=1;dashed=1;dashPattern=12 12;" edge="1" parent="JB8RkT-HLmfvHmpbfR2l-70" source="JB8RkT-HLmfvHmpbfR2l-21" target="JB8RkT-HLmfvHmpbfR2l-17">
          <mxGeometry relative="1" as="geometry" />
        </mxCell>
        <mxCell id="JB8RkT-HLmfvHmpbfR2l-21" value="SedanCarBuilder" style="swimlane;fontStyle=0;childLayout=stackLayout;horizontal=1;startSize=26;fillColor=none;horizontalStack=0;resizeParent=1;resizeParentMax=0;resizeLast=0;collapsible=1;marginBottom=0;whiteSpace=wrap;html=1;" vertex="1" parent="JB8RkT-HLmfvHmpbfR2l-70">
          <mxGeometry x="70" y="350" width="140" height="130" as="geometry" />
        </mxCell>
        <mxCell id="JB8RkT-HLmfvHmpbfR2l-29" value="+&amp;nbsp;SetModel&lt;span style=&quot;background-color: initial;&quot;&gt;:&amp;nbsp;&lt;/span&gt;void" style="text;strokeColor=none;fillColor=none;align=left;verticalAlign=top;spacingLeft=4;spacingRight=4;overflow=hidden;rotatable=0;points=[[0,0.5],[1,0.5]];portConstraint=eastwest;whiteSpace=wrap;html=1;" vertex="1" parent="JB8RkT-HLmfvHmpbfR2l-21">
          <mxGeometry y="26" width="140" height="26" as="geometry" />
        </mxCell>
        <mxCell id="JB8RkT-HLmfvHmpbfR2l-20" value="+&amp;nbsp;SetSunroof&lt;span style=&quot;background-color: initial;&quot;&gt;:&amp;nbsp;&lt;/span&gt;void" style="text;strokeColor=none;fillColor=none;align=left;verticalAlign=top;spacingLeft=4;spacingRight=4;overflow=hidden;rotatable=0;points=[[0,0.5],[1,0.5]];portConstraint=eastwest;whiteSpace=wrap;html=1;" vertex="1" parent="JB8RkT-HLmfvHmpbfR2l-21">
          <mxGeometry y="52" width="140" height="26" as="geometry" />
        </mxCell>
        <mxCell id="JB8RkT-HLmfvHmpbfR2l-19" value="+&amp;nbsp;SetEngineSize&lt;span style=&quot;background-color: initial;&quot;&gt;:&amp;nbsp;&lt;/span&gt;void" style="text;strokeColor=none;fillColor=none;align=left;verticalAlign=top;spacingLeft=4;spacingRight=4;overflow=hidden;rotatable=0;points=[[0,0.5],[1,0.5]];portConstraint=eastwest;whiteSpace=wrap;html=1;" vertex="1" parent="JB8RkT-HLmfvHmpbfR2l-21">
          <mxGeometry y="78" width="140" height="26" as="geometry" />
        </mxCell>
        <mxCell id="JB8RkT-HLmfvHmpbfR2l-31" value="+&amp;nbsp;SetColor&lt;span style=&quot;background-color: initial;&quot;&gt;:&amp;nbsp;&lt;/span&gt;void" style="text;strokeColor=none;fillColor=none;align=left;verticalAlign=top;spacingLeft=4;spacingRight=4;overflow=hidden;rotatable=0;points=[[0,0.5],[1,0.5]];portConstraint=eastwest;whiteSpace=wrap;html=1;" vertex="1" parent="JB8RkT-HLmfvHmpbfR2l-21">
          <mxGeometry y="104" width="140" height="26" as="geometry" />
        </mxCell>
        <mxCell id="JB8RkT-HLmfvHmpbfR2l-25" value="CarManufacturer" style="swimlane;fontStyle=0;childLayout=stackLayout;horizontal=1;startSize=26;fillColor=none;horizontalStack=0;resizeParent=1;resizeParentMax=0;resizeLast=0;collapsible=1;marginBottom=0;whiteSpace=wrap;html=1;" vertex="1" parent="JB8RkT-HLmfvHmpbfR2l-70">
          <mxGeometry x="270" y="200" width="350" height="78" as="geometry" />
        </mxCell>
        <mxCell id="JB8RkT-HLmfvHmpbfR2l-26" value="+ CarManufacturer(CarBuilder builder)" style="text;strokeColor=none;fillColor=none;align=left;verticalAlign=top;spacingLeft=4;spacingRight=4;overflow=hidden;rotatable=0;points=[[0,0.5],[1,0.5]];portConstraint=eastwest;whiteSpace=wrap;html=1;" vertex="1" parent="JB8RkT-HLmfvHmpbfR2l-25">
          <mxGeometry y="26" width="350" height="26" as="geometry" />
        </mxCell>
        <mxCell id="JB8RkT-HLmfvHmpbfR2l-27" value="+&amp;nbsp;ConstructCar()&lt;span style=&quot;background-color: initial;&quot;&gt;: void&lt;/span&gt;" style="text;strokeColor=none;fillColor=none;align=left;verticalAlign=top;spacingLeft=4;spacingRight=4;overflow=hidden;rotatable=0;points=[[0,0.5],[1,0.5]];portConstraint=eastwest;whiteSpace=wrap;html=1;" vertex="1" parent="JB8RkT-HLmfvHmpbfR2l-25">
          <mxGeometry y="52" width="350" height="26" as="geometry" />
        </mxCell>
        <mxCell id="JB8RkT-HLmfvHmpbfR2l-38" style="edgeStyle=orthogonalEdgeStyle;rounded=0;orthogonalLoop=1;jettySize=auto;html=1;dashed=1;dashPattern=12 12;" edge="1" parent="JB8RkT-HLmfvHmpbfR2l-70" source="JB8RkT-HLmfvHmpbfR2l-13" target="JB8RkT-HLmfvHmpbfR2l-25">
          <mxGeometry relative="1" as="geometry" />
        </mxCell>
        <mxCell id="JB8RkT-HLmfvHmpbfR2l-36" style="edgeStyle=orthogonalEdgeStyle;rounded=0;orthogonalLoop=1;jettySize=auto;html=1;" edge="1" parent="JB8RkT-HLmfvHmpbfR2l-70" source="JB8RkT-HLmfvHmpbfR2l-18" target="JB8RkT-HLmfvHmpbfR2l-25">
          <mxGeometry relative="1" as="geometry" />
        </mxCell>
        <mxCell id="JB8RkT-HLmfvHmpbfR2l-1" value="1." style="text;strokeColor=none;fillColor=none;html=1;fontSize=24;fontStyle=1;verticalAlign=middle;align=center;" vertex="1" parent="JB8RkT-HLmfvHmpbfR2l-70">
          <mxGeometry x="-10" width="100" height="40" as="geometry" />
        </mxCell>
        <mxCell id="JB8RkT-HLmfvHmpbfR2l-115" style="edgeStyle=orthogonalEdgeStyle;rounded=0;orthogonalLoop=1;jettySize=auto;html=1;" edge="1" parent="JB8RkT-HLmfvHmpbfR2l-70" source="JB8RkT-HLmfvHmpbfR2l-103" target="JB8RkT-HLmfvHmpbfR2l-13">
          <mxGeometry relative="1" as="geometry" />
        </mxCell>
        <mxCell id="JB8RkT-HLmfvHmpbfR2l-103" value="Client" style="swimlane;fontStyle=0;childLayout=stackLayout;horizontal=1;startSize=26;fillColor=none;horizontalStack=0;resizeParent=1;resizeParentMax=0;resizeLast=0;collapsible=1;marginBottom=0;whiteSpace=wrap;html=1;" vertex="1" parent="JB8RkT-HLmfvHmpbfR2l-70">
          <mxGeometry x="140" y="50" width="140" height="52" as="geometry" />
        </mxCell>
        <mxCell id="JB8RkT-HLmfvHmpbfR2l-104" value="+ Main: void" style="text;strokeColor=none;fillColor=none;align=left;verticalAlign=top;spacingLeft=4;spacingRight=4;overflow=hidden;rotatable=0;points=[[0,0.5],[1,0.5]];portConstraint=eastwest;whiteSpace=wrap;html=1;" vertex="1" parent="JB8RkT-HLmfvHmpbfR2l-103">
          <mxGeometry y="26" width="140" height="26" as="geometry" />
        </mxCell>
        <mxCell id="JB8RkT-HLmfvHmpbfR2l-71" value="" style="swimlane;startSize=0;" vertex="1" parent="1">
          <mxGeometry x="10" y="586" width="680" height="494" as="geometry">
            <mxRectangle x="10" y="586" width="50" height="40" as="alternateBounds" />
          </mxGeometry>
        </mxCell>
        <mxCell id="JB8RkT-HLmfvHmpbfR2l-3" value="3." style="text;strokeColor=none;fillColor=none;html=1;fontSize=24;fontStyle=1;verticalAlign=middle;align=center;" vertex="1" parent="JB8RkT-HLmfvHmpbfR2l-71">
          <mxGeometry x="30" width="100" height="40" as="geometry" />
        </mxCell>
        <mxCell id="JB8RkT-HLmfvHmpbfR2l-39" value="IDataHandler" style="swimlane;fontStyle=0;childLayout=stackLayout;horizontal=1;startSize=26;fillColor=none;horizontalStack=0;resizeParent=1;resizeParentMax=0;resizeLast=0;collapsible=1;marginBottom=0;whiteSpace=wrap;html=1;" vertex="1" parent="JB8RkT-HLmfvHmpbfR2l-71">
          <mxGeometry x="230" y="160" width="190" height="52" as="geometry" />
        </mxCell>
        <mxCell id="JB8RkT-HLmfvHmpbfR2l-67" style="edgeStyle=orthogonalEdgeStyle;rounded=0;orthogonalLoop=1;jettySize=auto;html=1;dashed=1;dashPattern=12 12;" edge="1" parent="JB8RkT-HLmfvHmpbfR2l-71" source="JB8RkT-HLmfvHmpbfR2l-43" target="JB8RkT-HLmfvHmpbfR2l-39">
          <mxGeometry relative="1" as="geometry">
            <Array as="points">
              <mxPoint x="545" y="272" />
              <mxPoint x="325" y="272" />
            </Array>
          </mxGeometry>
        </mxCell>
        <mxCell id="JB8RkT-HLmfvHmpbfR2l-43" value="StringDataHandler" style="swimlane;fontStyle=0;childLayout=stackLayout;horizontal=1;startSize=26;fillColor=none;horizontalStack=0;resizeParent=1;resizeParentMax=0;resizeLast=0;collapsible=1;marginBottom=0;whiteSpace=wrap;html=1;" vertex="1" parent="JB8RkT-HLmfvHmpbfR2l-71">
          <mxGeometry x="450" y="302" width="190" height="78" as="geometry" />
        </mxCell>
        <mxCell id="JB8RkT-HLmfvHmpbfR2l-61" value="+&amp;nbsp;SetNextHandler()&lt;span style=&quot;background-color: initial;&quot;&gt;: void&lt;/span&gt;" style="text;strokeColor=none;fillColor=none;align=left;verticalAlign=top;spacingLeft=4;spacingRight=4;overflow=hidden;rotatable=0;points=[[0,0.5],[1,0.5]];portConstraint=eastwest;whiteSpace=wrap;html=1;" vertex="1" parent="JB8RkT-HLmfvHmpbfR2l-43">
          <mxGeometry y="26" width="190" height="26" as="geometry" />
        </mxCell>
        <mxCell id="JB8RkT-HLmfvHmpbfR2l-62" value="+&amp;nbsp;HandleData()&lt;span style=&quot;background-color: initial;&quot;&gt;: void&lt;/span&gt;" style="text;strokeColor=none;fillColor=none;align=left;verticalAlign=top;spacingLeft=4;spacingRight=4;overflow=hidden;rotatable=0;points=[[0,0.5],[1,0.5]];portConstraint=eastwest;whiteSpace=wrap;html=1;" vertex="1" parent="JB8RkT-HLmfvHmpbfR2l-43">
          <mxGeometry y="52" width="190" height="26" as="geometry" />
        </mxCell>
        <mxCell id="JB8RkT-HLmfvHmpbfR2l-65" style="edgeStyle=orthogonalEdgeStyle;rounded=0;orthogonalLoop=1;jettySize=auto;html=1;dashed=1;dashPattern=12 12;" edge="1" parent="JB8RkT-HLmfvHmpbfR2l-71" source="JB8RkT-HLmfvHmpbfR2l-47" target="JB8RkT-HLmfvHmpbfR2l-39">
          <mxGeometry relative="1" as="geometry">
            <Array as="points">
              <mxPoint x="105" y="272" />
              <mxPoint x="325" y="272" />
            </Array>
          </mxGeometry>
        </mxCell>
        <mxCell id="JB8RkT-HLmfvHmpbfR2l-47" value="IntDataHandler" style="swimlane;fontStyle=0;childLayout=stackLayout;horizontal=1;startSize=26;fillColor=none;horizontalStack=0;resizeParent=1;resizeParentMax=0;resizeLast=0;collapsible=1;marginBottom=0;whiteSpace=wrap;html=1;" vertex="1" parent="JB8RkT-HLmfvHmpbfR2l-71">
          <mxGeometry x="10" y="302" width="190" height="78" as="geometry" />
        </mxCell>
        <mxCell id="JB8RkT-HLmfvHmpbfR2l-60" value="+&amp;nbsp;HandleData()&lt;span style=&quot;background-color: initial;&quot;&gt;: void&lt;/span&gt;" style="text;strokeColor=none;fillColor=none;align=left;verticalAlign=top;spacingLeft=4;spacingRight=4;overflow=hidden;rotatable=0;points=[[0,0.5],[1,0.5]];portConstraint=eastwest;whiteSpace=wrap;html=1;" vertex="1" parent="JB8RkT-HLmfvHmpbfR2l-47">
          <mxGeometry y="26" width="190" height="26" as="geometry" />
        </mxCell>
        <mxCell id="JB8RkT-HLmfvHmpbfR2l-59" value="+&amp;nbsp;SetNextHandler()&lt;span style=&quot;background-color: initial;&quot;&gt;: void&lt;/span&gt;" style="text;strokeColor=none;fillColor=none;align=left;verticalAlign=top;spacingLeft=4;spacingRight=4;overflow=hidden;rotatable=0;points=[[0,0.5],[1,0.5]];portConstraint=eastwest;whiteSpace=wrap;html=1;" vertex="1" parent="JB8RkT-HLmfvHmpbfR2l-47">
          <mxGeometry y="52" width="190" height="26" as="geometry" />
        </mxCell>
        <mxCell id="JB8RkT-HLmfvHmpbfR2l-68" style="edgeStyle=orthogonalEdgeStyle;rounded=0;orthogonalLoop=1;jettySize=auto;html=1;" edge="1" parent="JB8RkT-HLmfvHmpbfR2l-71" source="JB8RkT-HLmfvHmpbfR2l-51" target="JB8RkT-HLmfvHmpbfR2l-39">
          <mxGeometry relative="1" as="geometry" />
        </mxCell>
        <mxCell id="JB8RkT-HLmfvHmpbfR2l-51" value="PoorlyDesignedCode" style="swimlane;fontStyle=0;childLayout=stackLayout;horizontal=1;startSize=26;fillColor=none;horizontalStack=0;resizeParent=1;resizeParentMax=0;resizeLast=0;collapsible=1;marginBottom=0;whiteSpace=wrap;html=1;" vertex="1" parent="JB8RkT-HLmfvHmpbfR2l-71">
          <mxGeometry x="230" y="84" width="190" height="52" as="geometry" />
        </mxCell>
        <mxCell id="JB8RkT-HLmfvHmpbfR2l-53" value="+&amp;nbsp;ProcessData()&lt;span style=&quot;background-color: initial;&quot;&gt;: void&lt;/span&gt;" style="text;strokeColor=none;fillColor=none;align=left;verticalAlign=top;spacingLeft=4;spacingRight=4;overflow=hidden;rotatable=0;points=[[0,0.5],[1,0.5]];portConstraint=eastwest;whiteSpace=wrap;html=1;" vertex="1" parent="JB8RkT-HLmfvHmpbfR2l-51">
          <mxGeometry y="26" width="190" height="26" as="geometry" />
        </mxCell>
        <mxCell id="JB8RkT-HLmfvHmpbfR2l-66" style="edgeStyle=orthogonalEdgeStyle;rounded=0;orthogonalLoop=1;jettySize=auto;html=1;dashed=1;dashPattern=12 12;" edge="1" parent="JB8RkT-HLmfvHmpbfR2l-71" source="JB8RkT-HLmfvHmpbfR2l-55" target="JB8RkT-HLmfvHmpbfR2l-39">
          <mxGeometry relative="1" as="geometry">
            <Array as="points">
              <mxPoint x="325" y="232" />
              <mxPoint x="325" y="232" />
            </Array>
          </mxGeometry>
        </mxCell>
        <mxCell id="JB8RkT-HLmfvHmpbfR2l-55" value="DoubleDataHandler" style="swimlane;fontStyle=0;childLayout=stackLayout;horizontal=1;startSize=26;fillColor=none;horizontalStack=0;resizeParent=1;resizeParentMax=0;resizeLast=0;collapsible=1;marginBottom=0;whiteSpace=wrap;html=1;" vertex="1" parent="JB8RkT-HLmfvHmpbfR2l-71">
          <mxGeometry x="230" y="302" width="190" height="78" as="geometry" />
        </mxCell>
        <mxCell id="JB8RkT-HLmfvHmpbfR2l-56" value="+&amp;nbsp;SetNextHandler()&lt;span style=&quot;background-color: initial;&quot;&gt;: void&lt;/span&gt;" style="text;strokeColor=none;fillColor=none;align=left;verticalAlign=top;spacingLeft=4;spacingRight=4;overflow=hidden;rotatable=0;points=[[0,0.5],[1,0.5]];portConstraint=eastwest;whiteSpace=wrap;html=1;" vertex="1" parent="JB8RkT-HLmfvHmpbfR2l-55">
          <mxGeometry y="26" width="190" height="26" as="geometry" />
        </mxCell>
        <mxCell id="JB8RkT-HLmfvHmpbfR2l-57" value="+&amp;nbsp;HandleData()&lt;span style=&quot;background-color: initial;&quot;&gt;: void&lt;/span&gt;" style="text;strokeColor=none;fillColor=none;align=left;verticalAlign=top;spacingLeft=4;spacingRight=4;overflow=hidden;rotatable=0;points=[[0,0.5],[1,0.5]];portConstraint=eastwest;whiteSpace=wrap;html=1;" vertex="1" parent="JB8RkT-HLmfvHmpbfR2l-55">
          <mxGeometry y="52" width="190" height="26" as="geometry" />
        </mxCell>
        <mxCell id="JB8RkT-HLmfvHmpbfR2l-113" style="edgeStyle=orthogonalEdgeStyle;rounded=0;orthogonalLoop=1;jettySize=auto;html=1;" edge="1" parent="JB8RkT-HLmfvHmpbfR2l-71" source="JB8RkT-HLmfvHmpbfR2l-111" target="JB8RkT-HLmfvHmpbfR2l-51">
          <mxGeometry relative="1" as="geometry" />
        </mxCell>
        <mxCell id="JB8RkT-HLmfvHmpbfR2l-111" value="Client" style="swimlane;fontStyle=0;childLayout=stackLayout;horizontal=1;startSize=26;fillColor=none;horizontalStack=0;resizeParent=1;resizeParentMax=0;resizeLast=0;collapsible=1;marginBottom=0;whiteSpace=wrap;html=1;" vertex="1" parent="JB8RkT-HLmfvHmpbfR2l-71">
          <mxGeometry x="500" y="84" width="140" height="52" as="geometry" />
        </mxCell>
        <mxCell id="JB8RkT-HLmfvHmpbfR2l-112" value="+ Main: void" style="text;strokeColor=none;fillColor=none;align=left;verticalAlign=top;spacingLeft=4;spacingRight=4;overflow=hidden;rotatable=0;points=[[0,0.5],[1,0.5]];portConstraint=eastwest;whiteSpace=wrap;html=1;" vertex="1" parent="JB8RkT-HLmfvHmpbfR2l-111">
          <mxGeometry y="26" width="140" height="26" as="geometry" />
        </mxCell>
        <mxCell id="JB8RkT-HLmfvHmpbfR2l-72" value="" style="swimlane;startSize=0;" vertex="1" parent="1">
          <mxGeometry x="720" y="586" width="600" height="524" as="geometry" />
        </mxCell>
        <mxCell id="JB8RkT-HLmfvHmpbfR2l-2" value="4." style="text;strokeColor=none;fillColor=none;html=1;fontSize=24;fontStyle=1;verticalAlign=middle;align=center;" vertex="1" parent="JB8RkT-HLmfvHmpbfR2l-72">
          <mxGeometry x="20" y="14" width="100" height="40" as="geometry" />
        </mxCell>
        <mxCell id="JB8RkT-HLmfvHmpbfR2l-74" value="IShape" style="swimlane;fontStyle=0;childLayout=stackLayout;horizontal=1;startSize=26;fillColor=none;horizontalStack=0;resizeParent=1;resizeParentMax=0;resizeLast=0;collapsible=1;marginBottom=0;whiteSpace=wrap;html=1;" vertex="1" parent="JB8RkT-HLmfvHmpbfR2l-72">
          <mxGeometry x="230" y="110" width="140" height="52" as="geometry" />
        </mxCell>
        <mxCell id="JB8RkT-HLmfvHmpbfR2l-75" value="+ Draw: void" style="text;strokeColor=none;fillColor=none;align=left;verticalAlign=top;spacingLeft=4;spacingRight=4;overflow=hidden;rotatable=0;points=[[0,0.5],[1,0.5]];portConstraint=eastwest;whiteSpace=wrap;html=1;" vertex="1" parent="JB8RkT-HLmfvHmpbfR2l-74">
          <mxGeometry y="26" width="140" height="26" as="geometry" />
        </mxCell>
        <mxCell id="JB8RkT-HLmfvHmpbfR2l-80" value="RedShapeD" style="swimlane;fontStyle=0;childLayout=stackLayout;horizontal=1;startSize=26;fillColor=none;horizontalStack=0;resizeParent=1;resizeParentMax=0;resizeLast=0;collapsible=1;marginBottom=0;whiteSpace=wrap;html=1;" vertex="1" parent="JB8RkT-HLmfvHmpbfR2l-72">
          <mxGeometry x="50" y="430" width="140" height="78" as="geometry" />
        </mxCell>
        <mxCell id="JB8RkT-HLmfvHmpbfR2l-81" value="+ SetRedBorder: void" style="text;strokeColor=none;fillColor=none;align=left;verticalAlign=top;spacingLeft=4;spacingRight=4;overflow=hidden;rotatable=0;points=[[0,0.5],[1,0.5]];portConstraint=eastwest;whiteSpace=wrap;html=1;" vertex="1" parent="JB8RkT-HLmfvHmpbfR2l-80">
          <mxGeometry y="26" width="140" height="26" as="geometry" />
        </mxCell>
        <mxCell id="JB8RkT-HLmfvHmpbfR2l-90" value="+ Draw: void" style="text;strokeColor=none;fillColor=none;align=left;verticalAlign=top;spacingLeft=4;spacingRight=4;overflow=hidden;rotatable=0;points=[[0,0.5],[1,0.5]];portConstraint=eastwest;whiteSpace=wrap;html=1;" vertex="1" parent="JB8RkT-HLmfvHmpbfR2l-80">
          <mxGeometry y="52" width="140" height="26" as="geometry" />
        </mxCell>
        <mxCell id="JB8RkT-HLmfvHmpbfR2l-92" style="edgeStyle=orthogonalEdgeStyle;rounded=0;orthogonalLoop=1;jettySize=auto;html=1;dashed=1;dashPattern=12 12;" edge="1" parent="JB8RkT-HLmfvHmpbfR2l-72" source="JB8RkT-HLmfvHmpbfR2l-82" target="JB8RkT-HLmfvHmpbfR2l-74">
          <mxGeometry relative="1" as="geometry" />
        </mxCell>
        <mxCell id="JB8RkT-HLmfvHmpbfR2l-82" value="GroupShape" style="swimlane;fontStyle=0;childLayout=stackLayout;horizontal=1;startSize=26;fillColor=none;horizontalStack=0;resizeParent=1;resizeParentMax=0;resizeLast=0;collapsible=1;marginBottom=0;whiteSpace=wrap;html=1;" vertex="1" parent="JB8RkT-HLmfvHmpbfR2l-72">
          <mxGeometry x="230" y="290" width="140" height="78" as="geometry" />
        </mxCell>
        <mxCell id="JB8RkT-HLmfvHmpbfR2l-91" value="+ Draw: void" style="text;strokeColor=none;fillColor=none;align=left;verticalAlign=top;spacingLeft=4;spacingRight=4;overflow=hidden;rotatable=0;points=[[0,0.5],[1,0.5]];portConstraint=eastwest;whiteSpace=wrap;html=1;" vertex="1" parent="JB8RkT-HLmfvHmpbfR2l-82">
          <mxGeometry y="26" width="140" height="26" as="geometry" />
        </mxCell>
        <mxCell id="JB8RkT-HLmfvHmpbfR2l-83" value="+ AddShape: void" style="text;strokeColor=none;fillColor=none;align=left;verticalAlign=top;spacingLeft=4;spacingRight=4;overflow=hidden;rotatable=0;points=[[0,0.5],[1,0.5]];portConstraint=eastwest;whiteSpace=wrap;html=1;" vertex="1" parent="JB8RkT-HLmfvHmpbfR2l-82">
          <mxGeometry y="52" width="140" height="26" as="geometry" />
        </mxCell>
        <mxCell id="JB8RkT-HLmfvHmpbfR2l-95" style="edgeStyle=orthogonalEdgeStyle;rounded=0;orthogonalLoop=1;jettySize=auto;html=1;dashed=1;dashPattern=12 12;" edge="1" parent="JB8RkT-HLmfvHmpbfR2l-72" source="JB8RkT-HLmfvHmpbfR2l-84" target="JB8RkT-HLmfvHmpbfR2l-74">
          <mxGeometry relative="1" as="geometry">
            <Array as="points">
              <mxPoint x="120" y="210" />
              <mxPoint x="300" y="210" />
            </Array>
          </mxGeometry>
        </mxCell>
        <mxCell id="JB8RkT-HLmfvHmpbfR2l-84" value="ShapeD" style="swimlane;fontStyle=0;childLayout=stackLayout;horizontal=1;startSize=26;fillColor=none;horizontalStack=0;resizeParent=1;resizeParentMax=0;resizeLast=0;collapsible=1;marginBottom=0;whiteSpace=wrap;html=1;" vertex="1" parent="JB8RkT-HLmfvHmpbfR2l-72">
          <mxGeometry x="50" y="290" width="140" height="78" as="geometry" />
        </mxCell>
        <mxCell id="JB8RkT-HLmfvHmpbfR2l-85" value="+ ShapeD()" style="text;strokeColor=none;fillColor=none;align=left;verticalAlign=top;spacingLeft=4;spacingRight=4;overflow=hidden;rotatable=0;points=[[0,0.5],[1,0.5]];portConstraint=eastwest;whiteSpace=wrap;html=1;" vertex="1" parent="JB8RkT-HLmfvHmpbfR2l-84">
          <mxGeometry y="26" width="140" height="26" as="geometry" />
        </mxCell>
        <mxCell id="JB8RkT-HLmfvHmpbfR2l-89" value="+ Draw: void" style="text;strokeColor=none;fillColor=none;align=left;verticalAlign=top;spacingLeft=4;spacingRight=4;overflow=hidden;rotatable=0;points=[[0,0.5],[1,0.5]];portConstraint=eastwest;whiteSpace=wrap;html=1;" vertex="1" parent="JB8RkT-HLmfvHmpbfR2l-84">
          <mxGeometry y="52" width="140" height="26" as="geometry" />
        </mxCell>
        <mxCell id="JB8RkT-HLmfvHmpbfR2l-93" style="edgeStyle=orthogonalEdgeStyle;rounded=0;orthogonalLoop=1;jettySize=auto;html=1;dashed=1;dashPattern=12 12;" edge="1" parent="JB8RkT-HLmfvHmpbfR2l-72" source="JB8RkT-HLmfvHmpbfR2l-80" target="JB8RkT-HLmfvHmpbfR2l-84">
          <mxGeometry relative="1" as="geometry" />
        </mxCell>
        <mxCell id="JB8RkT-HLmfvHmpbfR2l-94" style="edgeStyle=orthogonalEdgeStyle;rounded=0;orthogonalLoop=1;jettySize=auto;html=1;dashed=1;dashPattern=12 12;" edge="1" parent="JB8RkT-HLmfvHmpbfR2l-72" source="JB8RkT-HLmfvHmpbfR2l-86" target="JB8RkT-HLmfvHmpbfR2l-74">
          <mxGeometry relative="1" as="geometry">
            <Array as="points">
              <mxPoint x="480" y="210" />
              <mxPoint x="300" y="210" />
            </Array>
          </mxGeometry>
        </mxCell>
        <mxCell id="JB8RkT-HLmfvHmpbfR2l-86" value="SimpleShape" style="swimlane;fontStyle=0;childLayout=stackLayout;horizontal=1;startSize=26;fillColor=none;horizontalStack=0;resizeParent=1;resizeParentMax=0;resizeLast=0;collapsible=1;marginBottom=0;whiteSpace=wrap;html=1;" vertex="1" parent="JB8RkT-HLmfvHmpbfR2l-72">
          <mxGeometry x="390" y="282" width="140" height="78" as="geometry" />
        </mxCell>
        <mxCell id="JB8RkT-HLmfvHmpbfR2l-87" value="+ SimpleShape()" style="text;strokeColor=none;fillColor=none;align=left;verticalAlign=top;spacingLeft=4;spacingRight=4;overflow=hidden;rotatable=0;points=[[0,0.5],[1,0.5]];portConstraint=eastwest;whiteSpace=wrap;html=1;" vertex="1" parent="JB8RkT-HLmfvHmpbfR2l-86">
          <mxGeometry y="26" width="140" height="26" as="geometry" />
        </mxCell>
        <mxCell id="JB8RkT-HLmfvHmpbfR2l-88" value="+ Draw: void" style="text;strokeColor=none;fillColor=none;align=left;verticalAlign=top;spacingLeft=4;spacingRight=4;overflow=hidden;rotatable=0;points=[[0,0.5],[1,0.5]];portConstraint=eastwest;whiteSpace=wrap;html=1;" vertex="1" parent="JB8RkT-HLmfvHmpbfR2l-86">
          <mxGeometry y="52" width="140" height="26" as="geometry" />
        </mxCell>
        <mxCell id="JB8RkT-HLmfvHmpbfR2l-116" style="edgeStyle=orthogonalEdgeStyle;rounded=0;orthogonalLoop=1;jettySize=auto;html=1;" edge="1" parent="JB8RkT-HLmfvHmpbfR2l-72" source="JB8RkT-HLmfvHmpbfR2l-109" target="JB8RkT-HLmfvHmpbfR2l-74">
          <mxGeometry relative="1" as="geometry" />
        </mxCell>
        <mxCell id="JB8RkT-HLmfvHmpbfR2l-109" value="Client" style="swimlane;fontStyle=0;childLayout=stackLayout;horizontal=1;startSize=26;fillColor=none;horizontalStack=0;resizeParent=1;resizeParentMax=0;resizeLast=0;collapsible=1;marginBottom=0;whiteSpace=wrap;html=1;" vertex="1" parent="JB8RkT-HLmfvHmpbfR2l-72">
          <mxGeometry x="230" y="24" width="140" height="52" as="geometry" />
        </mxCell>
        <mxCell id="JB8RkT-HLmfvHmpbfR2l-110" value="+ Main: void" style="text;strokeColor=none;fillColor=none;align=left;verticalAlign=top;spacingLeft=4;spacingRight=4;overflow=hidden;rotatable=0;points=[[0,0.5],[1,0.5]];portConstraint=eastwest;whiteSpace=wrap;html=1;" vertex="1" parent="JB8RkT-HLmfvHmpbfR2l-109">
          <mxGeometry y="26" width="140" height="26" as="geometry" />
        </mxCell>
        <mxCell id="JB8RkT-HLmfvHmpbfR2l-73" value="" style="swimlane;startSize=0;" vertex="1" parent="1">
          <mxGeometry x="720" y="45" width="360" height="315" as="geometry">
            <mxRectangle x="720" y="45" width="50" height="40" as="alternateBounds" />
          </mxGeometry>
        </mxCell>
        <mxCell id="JB8RkT-HLmfvHmpbfR2l-4" value="2." style="text;strokeColor=none;fillColor=none;html=1;fontSize=24;fontStyle=1;verticalAlign=middle;align=center;" vertex="1" parent="JB8RkT-HLmfvHmpbfR2l-73">
          <mxGeometry x="20" y="5" width="100" height="40" as="geometry" />
        </mxCell>
        <mxCell id="JB8RkT-HLmfvHmpbfR2l-5" value="PoorlyDesignClass" style="swimlane;fontStyle=0;childLayout=stackLayout;horizontal=1;startSize=26;fillColor=none;horizontalStack=0;resizeParent=1;resizeParentMax=0;resizeLast=0;collapsible=1;marginBottom=0;whiteSpace=wrap;html=1;" vertex="1" parent="JB8RkT-HLmfvHmpbfR2l-73">
          <mxGeometry x="95" y="205" width="220" height="52" as="geometry" />
        </mxCell>
        <mxCell id="JB8RkT-HLmfvHmpbfR2l-6" value="+ PoorlyDesignClass()" style="text;strokeColor=none;fillColor=none;align=left;verticalAlign=top;spacingLeft=4;spacingRight=4;overflow=hidden;rotatable=0;points=[[0,0.5],[1,0.5]];portConstraint=eastwest;whiteSpace=wrap;html=1;" vertex="1" parent="JB8RkT-HLmfvHmpbfR2l-5">
          <mxGeometry y="26" width="220" height="26" as="geometry" />
        </mxCell>
        <mxCell id="JB8RkT-HLmfvHmpbfR2l-11" style="edgeStyle=orthogonalEdgeStyle;rounded=0;orthogonalLoop=1;jettySize=auto;html=1;" edge="1" parent="JB8RkT-HLmfvHmpbfR2l-5" source="JB8RkT-HLmfvHmpbfR2l-5" target="JB8RkT-HLmfvHmpbfR2l-6">
          <mxGeometry relative="1" as="geometry" />
        </mxCell>
        <mxCell id="JB8RkT-HLmfvHmpbfR2l-114" style="edgeStyle=orthogonalEdgeStyle;rounded=0;orthogonalLoop=1;jettySize=auto;html=1;" edge="1" parent="JB8RkT-HLmfvHmpbfR2l-73" source="JB8RkT-HLmfvHmpbfR2l-107" target="JB8RkT-HLmfvHmpbfR2l-5">
          <mxGeometry relative="1" as="geometry" />
        </mxCell>
        <mxCell id="JB8RkT-HLmfvHmpbfR2l-107" value="Client" style="swimlane;fontStyle=0;childLayout=stackLayout;horizontal=1;startSize=26;fillColor=none;horizontalStack=0;resizeParent=1;resizeParentMax=0;resizeLast=0;collapsible=1;marginBottom=0;whiteSpace=wrap;html=1;" vertex="1" parent="JB8RkT-HLmfvHmpbfR2l-73">
          <mxGeometry x="135" y="75" width="140" height="52" as="geometry" />
        </mxCell>
        <mxCell id="JB8RkT-HLmfvHmpbfR2l-108" value="+ Main: void" style="text;strokeColor=none;fillColor=none;align=left;verticalAlign=top;spacingLeft=4;spacingRight=4;overflow=hidden;rotatable=0;points=[[0,0.5],[1,0.5]];portConstraint=eastwest;whiteSpace=wrap;html=1;" vertex="1" parent="JB8RkT-HLmfvHmpbfR2l-107">
          <mxGeometry y="26" width="140" height="26" as="geometry" />
        </mxCell>
      </root>
    </mxGraphModel>
  </diagram>
</mxfile>
